<svg width="77" height="30" viewBox="0 0 77 30" fill="none" xmlns="http://www.w3.org/2000/svg">
<g clip-path="url(#clip0_4_116)">
<path d="M9.13604 29.4129C6.88764 29.3162 5.04811 28.6504 3.60975 27.4137C3.33525 27.1775 2.68113 26.4692 2.46168 26.1704C1.8784 25.3767 1.48186 24.6042 1.21736 23.7471C0.403471 21.1087 0.822351 17.6467 2.41548 13.8471C3.77954 10.5942 5.88433 7.36791 9.55646 2.89958C10.0974 2.24208 11.7082 0.319153 11.7186 0.319153C11.7225 0.319153 11.6347 0.483739 11.5242 0.684156C10.5694 2.41499 9.75243 4.45373 9.30737 6.21873C8.59242 9.05082 8.67866 11.4812 9.55992 13.3658C10.1678 14.6642 11.21 15.7887 12.382 16.4104C14.4336 17.4983 17.4374 17.5883 21.1057 16.6737C21.3583 16.6104 33.8731 13.015 48.9166 8.68374C63.96 4.35207 76.2704 0.810824 76.2723 0.813741C76.2766 0.817491 41.322 17.005 23.1766 25.4029C20.303 26.7325 19.5345 27.0683 18.1835 27.5817C14.7301 28.8942 11.6366 29.5204 9.13604 29.4129Z" fill="#131212"/>
</g>
<defs>
<clipPath id="clip0_4_116">
<rect width="77" height="30" fill="white"/>
</clipPath>
</defs>
</svg>
